<svg width="1920" height="1080" viewBox="0 0 1920 1080" fill="none" xmlns="http://www.w3.org/2000/svg">
<rect width="1920" height="1080" fill="#F5F1EF"/>
<rect x="402" y="147" width="927" height="683" rx="16" fill="white"/>
<path d="M960 147H1508C1513.52 147 1518 151.477 1518 157V820C1518 825.523 1513.52 830 1508 830H960V147Z" fill="#93F095"/>
<path fill-rule="evenodd" clip-rule="evenodd" d="M0 921L79.5 925.171C160.5 929.341 319.5 937.682 480 951.798C640.5 966.234 799.5 986.766 960 990.936C1120.5 995.107 1279.5 982.595 1440 978.746C1600.5 974.575 1759.5 978.746 1840.5 980.671L1920 982.595V1032H1840.5C1759.5 1032 1600.5 1032 1440 1032C1279.5 1032 1120.5 1032 960 1032C799.5 1032 640.5 1032 480 1032C319.5 1032 160.5 1032 79.5 1032H0V921Z" fill="#93F095" fill-opacity="0.8"/>
<path fill-rule="evenodd" clip-rule="evenodd" d="M0 965.4L64 974.28C128 983.16 256 1000.92 384 996.48C512 992.04 640 965.4 768 947.64C896 929.88 1024 921 1152 921C1280 921 1454 932.1 1582 947.64C1710 963.18 1792 983.16 1856 994.26L1920 1005.36V1032H1856C1792 1032 1664 1032 1536 1032C1408 1032 1280 1032 1152 1032C1024 1032 896 1032 768 1032C640 1032 512 1032 384 1032C256 1032 128 1032 64 1032H0V965.4Z" fill="#224957" fill-opacity="0.8"/>
</svg>
