<svg width="327" height="50" viewBox="0 0 327 50" fill="none" xmlns="http://www.w3.org/2000/svg">
<rect width="327" height="50" rx="6" fill="#0E6240"/>
<path d="M96.016 30L101.12 18.72H102.8L107.904 30H105.824L104.704 27.392H99.2L98.096 30H96.016ZM101.936 20.944L99.904 25.76H104L101.968 20.944H101.936ZM114.152 30.16C112.979 30.16 111.971 29.9253 111.128 29.456C110.296 28.976 109.656 28.304 109.208 27.44C108.76 26.5653 108.536 25.536 108.536 24.352C108.536 23.168 108.76 22.144 109.208 21.28C109.656 20.416 110.296 19.7493 111.128 19.28C111.971 18.8 112.979 18.56 114.152 18.56C114.909 18.56 115.624 18.6773 116.296 18.912C116.979 19.1467 117.539 19.4827 117.976 19.92L117.304 21.552C116.824 21.1467 116.333 20.8533 115.832 20.672C115.331 20.48 114.792 20.384 114.216 20.384C113.075 20.384 112.205 20.7307 111.608 21.424C111.011 22.1067 110.712 23.0827 110.712 24.352C110.712 25.6213 111.011 26.6027 111.608 27.296C112.205 27.9893 113.075 28.336 114.216 28.336C114.792 28.336 115.331 28.2453 115.832 28.064C116.333 27.872 116.824 27.5733 117.304 27.168L117.976 28.8C117.539 29.2267 116.979 29.5627 116.296 29.808C115.624 30.0427 114.909 30.16 114.152 30.16ZM119.763 30V18.72H127.267V20.352H121.731V23.456H126.915V25.088H121.731V28.368H127.267V30H119.763ZM133.042 30.16C132.157 30.16 131.335 30.048 130.578 29.824C129.821 29.5893 129.181 29.2747 128.658 28.88L129.282 27.264C129.805 27.6373 130.375 27.9253 130.994 28.128C131.623 28.3307 132.306 28.432 133.042 28.432C133.885 28.432 134.498 28.2933 134.882 28.016C135.266 27.728 135.458 27.36 135.458 26.912C135.458 26.5387 135.319 26.2453 135.042 26.032C134.775 25.8187 134.311 25.6427 133.65 25.504L131.89 25.136C129.885 24.7093 128.882 23.68 128.882 22.048C128.882 21.344 129.069 20.7307 129.442 20.208C129.815 19.6853 130.333 19.28 130.994 18.992C131.655 18.704 132.418 18.56 133.282 18.56C134.05 18.56 134.77 18.6773 135.442 18.912C136.114 19.136 136.674 19.456 137.122 19.872L136.498 21.408C135.613 20.6613 134.535 20.288 133.266 20.288C132.53 20.288 131.954 20.4427 131.538 20.752C131.122 21.0613 130.914 21.4667 130.914 21.968C130.914 22.352 131.042 22.6613 131.298 22.896C131.554 23.12 131.991 23.296 132.61 23.424L134.354 23.792C135.41 24.016 136.194 24.368 136.706 24.848C137.229 25.328 137.49 25.968 137.49 26.768C137.49 27.44 137.309 28.032 136.946 28.544C136.583 29.056 136.066 29.456 135.394 29.744C134.733 30.0213 133.949 30.16 133.042 30.16ZM143.136 30.16C142.25 30.16 141.429 30.048 140.672 29.824C139.914 29.5893 139.274 29.2747 138.752 28.88L139.376 27.264C139.898 27.6373 140.469 27.9253 141.088 28.128C141.717 28.3307 142.4 28.432 143.136 28.432C143.978 28.432 144.592 28.2933 144.976 28.016C145.36 27.728 145.552 27.36 145.552 26.912C145.552 26.5387 145.413 26.2453 145.136 26.032C144.869 25.8187 144.405 25.6427 143.744 25.504L141.984 25.136C139.978 24.7093 138.976 23.68 138.976 22.048C138.976 21.344 139.162 20.7307 139.536 20.208C139.909 19.6853 140.426 19.28 141.088 18.992C141.749 18.704 142.512 18.56 143.376 18.56C144.144 18.56 144.864 18.6773 145.536 18.912C146.208 19.136 146.768 19.456 147.216 19.872L146.592 21.408C145.706 20.6613 144.629 20.288 143.36 20.288C142.624 20.288 142.048 20.4427 141.632 20.752C141.216 21.0613 141.008 21.4667 141.008 21.968C141.008 22.352 141.136 22.6613 141.392 22.896C141.648 23.12 142.085 23.296 142.704 23.424L144.448 23.792C145.504 24.016 146.288 24.368 146.8 24.848C147.322 25.328 147.584 25.968 147.584 26.768C147.584 27.44 147.402 28.032 147.04 28.544C146.677 29.056 146.16 29.456 145.488 29.744C144.826 30.0213 144.042 30.16 143.136 30.16ZM148.047 30L153.151 18.72H154.831L159.935 30H157.855L156.735 27.392H151.231L150.127 30H148.047ZM153.967 20.944L151.935 25.76H156.031L153.999 20.944H153.967ZM161.17 30V18.72H166.066C167.303 18.72 168.258 19.0187 168.93 19.616C169.602 20.2027 169.938 21.0293 169.938 22.096C169.938 22.9387 169.719 23.6373 169.282 24.192C168.844 24.736 168.215 25.104 167.394 25.296C167.938 25.4667 168.386 25.8773 168.738 26.528L170.626 30H168.37L166.418 26.4C166.226 26.048 165.996 25.808 165.73 25.68C165.474 25.552 165.143 25.488 164.738 25.488H163.218V30H161.17ZM163.218 23.968H165.714C167.207 23.968 167.954 23.36 167.954 22.144C167.954 20.9387 167.207 20.336 165.714 20.336H163.218V23.968ZM181.699 30.16C180.525 30.16 179.517 29.9253 178.675 29.456C177.843 28.976 177.203 28.304 176.755 27.44C176.307 26.5653 176.083 25.536 176.083 24.352C176.083 23.168 176.307 22.144 176.755 21.28C177.203 20.416 177.843 19.7493 178.675 19.28C179.517 18.8 180.525 18.56 181.699 18.56C182.456 18.56 183.171 18.6773 183.843 18.912C184.525 19.1467 185.085 19.4827 185.523 19.92L184.851 21.552C184.371 21.1467 183.88 20.8533 183.379 20.672C182.877 20.48 182.339 20.384 181.763 20.384C180.621 20.384 179.752 20.7307 179.155 21.424C178.557 22.1067 178.259 23.0827 178.259 24.352C178.259 25.6213 178.557 26.6027 179.155 27.296C179.752 27.9893 180.621 28.336 181.763 28.336C182.339 28.336 182.877 28.2453 183.379 28.064C183.88 27.872 184.371 27.5733 184.851 27.168L185.523 28.8C185.085 29.2267 184.525 29.5627 183.843 29.808C183.171 30.0427 182.456 30.16 181.699 30.16ZM191.991 30.16C190.903 30.16 189.948 29.92 189.127 29.44C188.316 28.96 187.687 28.288 187.239 27.424C186.791 26.5493 186.567 25.5253 186.567 24.352C186.567 23.168 186.791 22.144 187.239 21.28C187.687 20.416 188.316 19.7493 189.127 19.28C189.938 18.8 190.892 18.56 191.991 18.56C193.09 18.56 194.044 18.8 194.855 19.28C195.666 19.7493 196.295 20.416 196.743 21.28C197.191 22.144 197.415 23.1627 197.415 24.336C197.415 25.52 197.191 26.5493 196.743 27.424C196.295 28.288 195.666 28.96 194.855 29.44C194.044 29.92 193.09 30.16 191.991 30.16ZM191.991 28.4C193.026 28.4 193.831 28.0427 194.407 27.328C194.983 26.6133 195.271 25.6213 195.271 24.352C195.271 23.072 194.983 22.08 194.407 21.376C193.842 20.672 193.036 20.32 191.991 20.32C190.956 20.32 190.151 20.672 189.575 21.376C188.999 22.08 188.711 23.072 188.711 24.352C188.711 25.6213 188.999 26.6133 189.575 27.328C190.151 28.0427 190.956 28.4 191.991 28.4ZM199.498 30V18.72H201.034L207.098 26.592V18.72H209.002V30H207.482L201.402 22.096V30H199.498ZM214.186 30V20.432H210.314V18.72H220.106V20.432H216.234V30H214.186ZM218.938 30L224.042 18.72H225.722L230.826 30H228.746L227.626 27.392H222.122L221.018 30H218.938ZM224.858 20.944L222.826 25.76H226.922L224.89 20.944H224.858Z" fill="white"/>
</svg>
