<svg width="327" height="50" viewBox="0 0 327 50" fill="none" xmlns="http://www.w3.org/2000/svg">
<rect width="327" height="50" rx="6" fill="#4D4D4D"/>
<path d="M89.98 30.16C88.8067 30.16 87.7987 29.9253 86.956 29.456C86.124 28.976 85.484 28.304 85.036 27.44C84.588 26.5653 84.364 25.536 84.364 24.352C84.364 23.168 84.588 22.144 85.036 21.28C85.484 20.416 86.124 19.7493 86.956 19.28C87.7987 18.8 88.8067 18.56 89.98 18.56C90.7373 18.56 91.452 18.6773 92.124 18.912C92.8067 19.1467 93.3667 19.4827 93.804 19.92L93.132 21.552C92.652 21.1467 92.1613 20.8533 91.66 20.672C91.1587 20.48 90.62 20.384 90.044 20.384C88.9027 20.384 88.0333 20.7307 87.436 21.424C86.8387 22.1067 86.54 23.0827 86.54 24.352C86.54 25.6213 86.8387 26.6027 87.436 27.296C88.0333 27.9893 88.9027 28.336 90.044 28.336C90.62 28.336 91.1587 28.2453 91.66 28.064C92.1613 27.872 92.652 27.5733 93.132 27.168L93.804 28.8C93.3667 29.2267 92.8067 29.5627 92.124 29.808C91.452 30.0427 90.7373 30.16 89.98 30.16ZM94.141 30L99.245 18.72H100.925L106.029 30H103.949L102.829 27.392H97.325L96.221 30H94.141ZM100.061 20.944L98.029 25.76H102.125L100.093 20.944H100.061ZM107.263 30V18.72H111.455C113.343 18.72 114.799 19.2053 115.823 20.176C116.858 21.1467 117.375 22.5387 117.375 24.352C117.375 26.1547 116.858 27.5467 115.823 28.528C114.799 29.5093 113.343 30 111.455 30H107.263ZM109.311 28.304H111.327C113.93 28.304 115.231 26.9867 115.231 24.352C115.231 21.728 113.93 20.416 111.327 20.416H109.311V28.304ZM118 30L123.104 18.72H124.784L129.888 30H127.808L126.688 27.392H121.184L120.08 30H118ZM123.92 20.944L121.888 25.76H125.984L123.952 20.944H123.92ZM134.886 30.16C134 30.16 133.179 30.048 132.422 29.824C131.664 29.5893 131.024 29.2747 130.502 28.88L131.126 27.264C131.648 27.6373 132.219 27.9253 132.838 28.128C133.467 28.3307 134.15 28.432 134.886 28.432C135.728 28.432 136.342 28.2933 136.726 28.016C137.11 27.728 137.302 27.36 137.302 26.912C137.302 26.5387 137.163 26.2453 136.886 26.032C136.619 25.8187 136.155 25.6427 135.494 25.504L133.734 25.136C131.728 24.7093 130.726 23.68 130.726 22.048C130.726 21.344 130.912 20.7307 131.286 20.208C131.659 19.6853 132.176 19.28 132.838 18.992C133.499 18.704 134.262 18.56 135.126 18.56C135.894 18.56 136.614 18.6773 137.286 18.912C137.958 19.136 138.518 19.456 138.966 19.872L138.342 21.408C137.456 20.6613 136.379 20.288 135.11 20.288C134.374 20.288 133.798 20.4427 133.382 20.752C132.966 21.0613 132.758 21.4667 132.758 21.968C132.758 22.352 132.886 22.6613 133.142 22.896C133.398 23.12 133.835 23.296 134.454 23.424L136.198 23.792C137.254 24.016 138.038 24.368 138.55 24.848C139.072 25.328 139.334 25.968 139.334 26.768C139.334 27.44 139.152 28.032 138.79 28.544C138.427 29.056 137.91 29.456 137.238 29.744C136.576 30.0213 135.792 30.16 134.886 30.16ZM143.577 30V20.432H139.705V18.72H149.497V20.432H145.625V30H143.577ZM150.795 30V18.72H155.691C156.928 18.72 157.883 19.0187 158.555 19.616C159.227 20.2027 159.562 21.0293 159.562 22.096C159.562 22.9387 159.344 23.6373 158.907 24.192C158.469 24.736 157.84 25.104 157.019 25.296C157.563 25.4667 158.011 25.8773 158.363 26.528L160.251 30H157.995L156.043 26.4C155.851 26.048 155.621 25.808 155.355 25.68C155.099 25.552 154.768 25.488 154.363 25.488H152.843V30H150.795ZM152.843 23.968H155.339C156.832 23.968 157.579 23.36 157.579 22.144C157.579 20.9387 156.832 20.336 155.339 20.336H152.843V23.968ZM160.344 30L165.448 18.72H167.128L172.232 30H170.152L169.032 27.392H163.528L162.424 30H160.344ZM166.264 20.944L164.232 25.76H168.328L166.296 20.944H166.264ZM173.466 30V18.72H178.362C179.6 18.72 180.554 19.0187 181.226 19.616C181.898 20.2027 182.234 21.0293 182.234 22.096C182.234 22.9387 182.016 23.6373 181.578 24.192C181.141 24.736 180.512 25.104 179.69 25.296C180.234 25.4667 180.682 25.8773 181.034 26.528L182.922 30H180.666L178.714 26.4C178.522 26.048 178.293 25.808 178.026 25.68C177.77 25.552 177.44 25.488 177.034 25.488H175.514V30H173.466ZM175.514 23.968H178.01C179.504 23.968 180.25 23.36 180.25 22.144C180.25 20.9387 179.504 20.336 178.01 20.336H175.514V23.968ZM193.996 30.16C192.822 30.16 191.814 29.9253 190.972 29.456C190.14 28.976 189.5 28.304 189.052 27.44C188.604 26.5653 188.38 25.536 188.38 24.352C188.38 23.168 188.604 22.144 189.052 21.28C189.5 20.416 190.14 19.7493 190.972 19.28C191.814 18.8 192.822 18.56 193.996 18.56C194.753 18.56 195.468 18.6773 196.14 18.912C196.822 19.1467 197.382 19.4827 197.82 19.92L197.148 21.552C196.668 21.1467 196.177 20.8533 195.676 20.672C195.174 20.48 194.636 20.384 194.06 20.384C192.918 20.384 192.049 20.7307 191.452 21.424C190.854 22.1067 190.556 23.0827 190.556 24.352C190.556 25.6213 190.854 26.6027 191.452 27.296C192.049 27.9893 192.918 28.336 194.06 28.336C194.636 28.336 195.174 28.2453 195.676 28.064C196.177 27.872 196.668 27.5733 197.148 27.168L197.82 28.8C197.382 29.2267 196.822 29.5627 196.14 29.808C195.468 30.0427 194.753 30.16 193.996 30.16ZM204.288 30.16C203.2 30.16 202.245 29.92 201.424 29.44C200.613 28.96 199.984 28.288 199.536 27.424C199.088 26.5493 198.864 25.5253 198.864 24.352C198.864 23.168 199.088 22.144 199.536 21.28C199.984 20.416 200.613 19.7493 201.424 19.28C202.235 18.8 203.189 18.56 204.288 18.56C205.387 18.56 206.341 18.8 207.152 19.28C207.963 19.7493 208.592 20.416 209.04 21.28C209.488 22.144 209.712 23.1627 209.712 24.336C209.712 25.52 209.488 26.5493 209.04 27.424C208.592 28.288 207.963 28.96 207.152 29.44C206.341 29.92 205.387 30.16 204.288 30.16ZM204.288 28.4C205.323 28.4 206.128 28.0427 206.704 27.328C207.28 26.6133 207.568 25.6213 207.568 24.352C207.568 23.072 207.28 22.08 206.704 21.376C206.139 20.672 205.333 20.32 204.288 20.32C203.253 20.32 202.448 20.672 201.872 21.376C201.296 22.08 201.008 23.072 201.008 24.352C201.008 25.6213 201.296 26.6133 201.872 27.328C202.448 28.0427 203.253 28.4 204.288 28.4ZM211.795 30V18.72H213.331L219.395 26.592V18.72H221.299V30H219.779L213.699 22.096V30H211.795ZM226.483 30V20.432H222.611V18.72H232.403V20.432H228.531V30H226.483ZM231.235 30L236.339 18.72H238.019L243.123 30H241.043L239.923 27.392H234.419L233.315 30H231.235ZM237.155 20.944L235.123 25.76H239.219L237.187 20.944H237.155Z" fill="white"/>
</svg>
