<svg width="327" height="50" viewBox="0 0 327 50" fill="none" xmlns="http://www.w3.org/2000/svg">
<rect width="327" height="50" rx="6" fill="#0E6240"/>
<path d="M119.98 30.16C118.807 30.16 117.799 29.9253 116.956 29.456C116.124 28.976 115.484 28.304 115.036 27.44C114.588 26.5653 114.364 25.536 114.364 24.352C114.364 23.168 114.588 22.144 115.036 21.28C115.484 20.416 116.124 19.7493 116.956 19.28C117.799 18.8 118.807 18.56 119.98 18.56C120.737 18.56 121.452 18.6773 122.124 18.912C122.807 19.1467 123.367 19.4827 123.804 19.92L123.132 21.552C122.652 21.1467 122.161 20.8533 121.66 20.672C121.159 20.48 120.62 20.384 120.044 20.384C118.903 20.384 118.033 20.7307 117.436 21.424C116.839 22.1067 116.54 23.0827 116.54 24.352C116.54 25.6213 116.839 26.6027 117.436 27.296C118.033 27.9893 118.903 28.336 120.044 28.336C120.62 28.336 121.159 28.2453 121.66 28.064C122.161 27.872 122.652 27.5733 123.132 27.168L123.804 28.8C123.367 29.2267 122.807 29.5627 122.124 29.808C121.452 30.0427 120.737 30.16 119.98 30.16ZM124.141 30L129.245 18.72H130.925L136.029 30H133.949L132.829 27.392H127.325L126.221 30H124.141ZM130.061 20.944L128.029 25.76H132.125L130.093 20.944H130.061ZM137.263 30V18.72H141.455C143.343 18.72 144.799 19.2053 145.823 20.176C146.858 21.1467 147.375 22.5387 147.375 24.352C147.375 26.1547 146.858 27.5467 145.823 28.528C144.799 29.5093 143.343 30 141.455 30H137.263ZM139.311 28.304H141.327C143.93 28.304 145.231 26.9867 145.231 24.352C145.231 21.728 143.93 20.416 141.327 20.416H139.311V28.304ZM148 30L153.104 18.72H154.784L159.888 30H157.808L156.688 27.392H151.184L150.08 30H148ZM153.92 20.944L151.888 25.76H155.984L153.952 20.944H153.92ZM164.886 30.16C164 30.16 163.179 30.048 162.422 29.824C161.664 29.5893 161.024 29.2747 160.502 28.88L161.126 27.264C161.648 27.6373 162.219 27.9253 162.838 28.128C163.467 28.3307 164.15 28.432 164.886 28.432C165.728 28.432 166.342 28.2933 166.726 28.016C167.11 27.728 167.302 27.36 167.302 26.912C167.302 26.5387 167.163 26.2453 166.886 26.032C166.619 25.8187 166.155 25.6427 165.494 25.504L163.734 25.136C161.728 24.7093 160.726 23.68 160.726 22.048C160.726 21.344 160.912 20.7307 161.286 20.208C161.659 19.6853 162.176 19.28 162.838 18.992C163.499 18.704 164.262 18.56 165.126 18.56C165.894 18.56 166.614 18.6773 167.286 18.912C167.958 19.136 168.518 19.456 168.966 19.872L168.342 21.408C167.456 20.6613 166.379 20.288 165.11 20.288C164.374 20.288 163.798 20.4427 163.382 20.752C162.966 21.0613 162.758 21.4667 162.758 21.968C162.758 22.352 162.886 22.6613 163.142 22.896C163.398 23.12 163.835 23.296 164.454 23.424L166.198 23.792C167.254 24.016 168.038 24.368 168.55 24.848C169.072 25.328 169.334 25.968 169.334 26.768C169.334 27.44 169.152 28.032 168.79 28.544C168.427 29.056 167.91 29.456 167.238 29.744C166.576 30.0213 165.792 30.16 164.886 30.16ZM173.577 30V20.432H169.705V18.72H179.497V20.432H175.625V30H173.577ZM180.795 30V18.72H185.691C186.928 18.72 187.883 19.0187 188.555 19.616C189.227 20.2027 189.562 21.0293 189.562 22.096C189.562 22.9387 189.344 23.6373 188.907 24.192C188.469 24.736 187.84 25.104 187.019 25.296C187.563 25.4667 188.011 25.8773 188.363 26.528L190.251 30H187.995L186.043 26.4C185.851 26.048 185.621 25.808 185.355 25.68C185.099 25.552 184.768 25.488 184.363 25.488H182.843V30H180.795ZM182.843 23.968H185.339C186.832 23.968 187.579 23.36 187.579 22.144C187.579 20.9387 186.832 20.336 185.339 20.336H182.843V23.968ZM190.344 30L195.448 18.72H197.128L202.232 30H200.152L199.032 27.392H193.528L192.424 30H190.344ZM196.264 20.944L194.232 25.76H198.328L196.296 20.944H196.264ZM203.466 30V18.72H208.362C209.6 18.72 210.554 19.0187 211.226 19.616C211.898 20.2027 212.234 21.0293 212.234 22.096C212.234 22.9387 212.016 23.6373 211.578 24.192C211.141 24.736 210.512 25.104 209.69 25.296C210.234 25.4667 210.682 25.8773 211.034 26.528L212.922 30H210.666L208.714 26.4C208.522 26.048 208.293 25.808 208.026 25.68C207.77 25.552 207.44 25.488 207.034 25.488H205.514V30H203.466ZM205.514 23.968H208.01C209.504 23.968 210.25 23.36 210.25 22.144C210.25 20.9387 209.504 20.336 208.01 20.336H205.514V23.968Z" fill="white"/>
</svg>
