<svg width="327" height="50" viewBox="0 0 327 50" fill="none" xmlns="http://www.w3.org/2000/svg">
<rect width="327" height="50" rx="6" fill="#0E6240"/>
<path d="M131.732 30V18.72H139.236V20.352H133.7V23.456H138.884V25.088H133.7V28.368H139.236V30H131.732ZM141.279 30V18.72H142.815L148.879 26.592V18.72H150.783V30H149.263L143.183 22.096V30H141.279ZM155.968 30V20.432H152.096V18.72H161.888V20.432H158.016V30H155.968ZM163.185 30V18.72H168.081C169.318 18.72 170.273 19.0187 170.945 19.616C171.617 20.2027 171.953 21.0293 171.953 22.096C171.953 22.9387 171.734 23.6373 171.297 24.192C170.86 24.736 170.23 25.104 169.409 25.296C169.953 25.4667 170.401 25.8773 170.753 26.528L172.641 30H170.385L168.433 26.4C168.241 26.048 168.012 25.808 167.745 25.68C167.489 25.552 167.158 25.488 166.753 25.488H165.233V30H163.185ZM165.233 23.968H167.729C169.222 23.968 169.969 23.36 169.969 22.144C169.969 20.9387 169.222 20.336 167.729 20.336H165.233V23.968ZM172.735 30L177.839 18.72H179.519L184.623 30H182.543L181.423 27.392H175.919L174.815 30H172.735ZM178.655 20.944L176.623 25.76H180.719L178.687 20.944H178.655ZM185.857 30V18.72H190.753C191.99 18.72 192.945 19.0187 193.617 19.616C194.289 20.2027 194.625 21.0293 194.625 22.096C194.625 22.9387 194.406 23.6373 193.969 24.192C193.532 24.736 192.902 25.104 192.081 25.296C192.625 25.4667 193.073 25.8773 193.425 26.528L195.313 30H193.057L191.105 26.4C190.913 26.048 190.684 25.808 190.417 25.68C190.161 25.552 189.83 25.488 189.425 25.488H187.905V30H185.857ZM187.905 23.968H190.401C191.894 23.968 192.641 23.36 192.641 22.144C192.641 20.9387 191.894 20.336 190.401 20.336H187.905V23.968Z" fill="white"/>
</svg>
