<svg width="207" height="21" viewBox="0 0 207 21" fill="none" xmlns="http://www.w3.org/2000/svg">
<rect width="206" height="21" transform="translate(0.5)" fill="white"/>
<line x1="0.5" y1="10" x2="80.5" y2="10" stroke="#191919"/>
<path d="M98.002 15.14C97.05 15.14 96.2147 14.93 95.496 14.51C94.7867 14.09 94.236 13.502 93.844 12.746C93.452 11.9807 93.256 11.0847 93.256 10.058C93.256 9.022 93.452 8.126 93.844 7.37C94.236 6.614 94.7867 6.03067 95.496 5.62C96.2053 5.2 97.0407 4.99 98.002 4.99C98.9633 4.99 99.7987 5.2 100.508 5.62C101.217 6.03067 101.768 6.614 102.16 7.37C102.552 8.126 102.748 9.01733 102.748 10.044C102.748 11.08 102.552 11.9807 102.16 12.746C101.768 13.502 101.217 14.09 100.508 14.51C99.7987 14.93 98.9633 15.14 98.002 15.14ZM98.002 13.6C98.9073 13.6 99.612 13.2873 100.116 12.662C100.62 12.0367 100.872 11.1687 100.872 10.058C100.872 8.938 100.62 8.07 100.116 7.454C99.6213 6.838 98.9167 6.53 98.002 6.53C97.0967 6.53 96.392 6.838 95.888 7.454C95.384 8.07 95.132 8.938 95.132 10.058C95.132 11.1687 95.384 12.0367 95.888 12.662C96.392 13.2873 97.0967 13.6 98.002 13.6ZM108.672 15.14C107.319 15.14 106.283 14.79 105.564 14.09C104.855 13.3807 104.5 12.3353 104.5 10.954V5.13H106.292V10.94C106.292 11.8267 106.493 12.494 106.894 12.942C107.305 13.3807 107.898 13.6 108.672 13.6C110.25 13.6 111.038 12.7133 111.038 10.94V5.13H112.816V10.954C112.816 12.3353 112.466 13.3807 111.766 14.09C111.066 14.79 110.035 15.14 108.672 15.14Z" fill="#0E6240"/>
<line x1="126.5" y1="10" x2="206.5" y2="10" stroke="#191919"/>
</svg>
