<svg width="327" height="50" viewBox="0 0 327 50" fill="none" xmlns="http://www.w3.org/2000/svg">
<rect width="327" height="50" rx="6" fill="#0E6240"/>
<path d="M126.732 30V18.72H131.628C132.865 18.72 133.82 19.0293 134.492 19.648C135.164 20.2667 135.5 21.1307 135.5 22.24C135.5 23.3493 135.164 24.2187 134.492 24.848C133.82 25.4667 132.865 25.776 131.628 25.776H128.78V30H126.732ZM128.78 24.16H131.308C132.78 24.16 133.516 23.52 133.516 22.24C133.516 20.9707 132.78 20.336 131.308 20.336H128.78V24.16ZM137.17 30V18.72H142.066C143.303 18.72 144.258 19.0187 144.93 19.616C145.602 20.2027 145.938 21.0293 145.938 22.096C145.938 22.9387 145.719 23.6373 145.282 24.192C144.844 24.736 144.215 25.104 143.394 25.296C143.938 25.4667 144.386 25.8773 144.738 26.528L146.626 30H144.37L142.418 26.4C142.226 26.048 141.996 25.808 141.73 25.68C141.474 25.552 141.143 25.488 140.738 25.488H139.218V30H137.17ZM139.218 23.968H141.714C143.207 23.968 143.954 23.36 143.954 22.144C143.954 20.9387 143.207 20.336 141.714 20.336H139.218V23.968ZM153.116 30.16C152.028 30.16 151.073 29.92 150.252 29.44C149.441 28.96 148.812 28.288 148.364 27.424C147.916 26.5493 147.692 25.5253 147.692 24.352C147.692 23.168 147.916 22.144 148.364 21.28C148.812 20.416 149.441 19.7493 150.252 19.28C151.063 18.8 152.017 18.56 153.116 18.56C154.215 18.56 155.169 18.8 155.98 19.28C156.791 19.7493 157.42 20.416 157.868 21.28C158.316 22.144 158.54 23.1627 158.54 24.336C158.54 25.52 158.316 26.5493 157.868 27.424C157.42 28.288 156.791 28.96 155.98 29.44C155.169 29.92 154.215 30.16 153.116 30.16ZM153.116 28.4C154.151 28.4 154.956 28.0427 155.532 27.328C156.108 26.6133 156.396 25.6213 156.396 24.352C156.396 23.072 156.108 22.08 155.532 21.376C154.967 20.672 154.161 20.32 153.116 20.32C152.081 20.32 151.276 20.672 150.7 21.376C150.124 22.08 149.836 23.072 149.836 24.352C149.836 25.6213 150.124 26.6133 150.7 27.328C151.276 28.0427 152.081 28.4 153.116 28.4ZM152.396 17.76L154.284 14.976H156.364L153.82 17.76H152.396ZM158.841 30L163.146 24.256L159.002 18.72H161.386L164.314 22.768L167.242 18.72H169.642L165.498 24.256L169.786 30H167.385L164.314 25.776L161.258 30H158.841ZM170.92 30V18.72H172.968V30H170.92ZM175.452 30V18.72H177.164L181.164 26.096L185.148 18.72H186.828V30H184.972V22.4L181.74 28.288H180.54L177.308 22.432V30H175.452ZM194.366 30.16C193.278 30.16 192.323 29.92 191.502 29.44C190.691 28.96 190.062 28.288 189.614 27.424C189.166 26.5493 188.942 25.5253 188.942 24.352C188.942 23.168 189.166 22.144 189.614 21.28C190.062 20.416 190.691 19.7493 191.502 19.28C192.313 18.8 193.267 18.56 194.366 18.56C195.465 18.56 196.419 18.8 197.23 19.28C198.041 19.7493 198.67 20.416 199.118 21.28C199.566 22.144 199.79 23.1627 199.79 24.336C199.79 25.52 199.566 26.5493 199.118 27.424C198.67 28.288 198.041 28.96 197.23 29.44C196.419 29.92 195.465 30.16 194.366 30.16ZM194.366 28.4C195.401 28.4 196.206 28.0427 196.782 27.328C197.358 26.6133 197.646 25.6213 197.646 24.352C197.646 23.072 197.358 22.08 196.782 21.376C196.217 20.672 195.411 20.32 194.366 20.32C193.331 20.32 192.526 20.672 191.95 21.376C191.374 22.08 191.086 23.072 191.086 24.352C191.086 25.6213 191.374 26.6133 191.95 27.328C192.526 28.0427 193.331 28.4 194.366 28.4Z" fill="white"/>
</svg>
