<svg width="327" height="50" viewBox="0 0 327 50" fill="none" xmlns="http://www.w3.org/2000/svg">
<rect width="327" height="50" rx="6" fill="#0E6240"/>
<path d="M86.232 30V18.72H91.128C92.3653 18.72 93.32 19.0187 93.992 19.616C94.664 20.2027 95 21.0293 95 22.096C95 22.9387 94.7813 23.6373 94.344 24.192C93.9067 24.736 93.2773 25.104 92.456 25.296C93 25.4667 93.448 25.8773 93.8 26.528L95.688 30H93.432L91.48 26.4C91.288 26.048 91.0587 25.808 90.792 25.68C90.536 25.552 90.2053 25.488 89.8 25.488H88.28V30H86.232ZM88.28 23.968H90.776C92.2693 23.968 93.016 23.36 93.016 22.144C93.016 20.9387 92.2693 20.336 90.776 20.336H88.28V23.968ZM97.2008 30V18.72H104.705V20.352H99.1688V23.456H104.353V25.088H99.1688V28.368H104.705V30H97.2008ZM111.98 30.16C110.807 30.16 109.799 29.9253 108.956 29.456C108.124 28.976 107.484 28.304 107.036 27.44C106.588 26.5653 106.364 25.536 106.364 24.352C106.364 23.168 106.588 22.144 107.036 21.28C107.484 20.416 108.124 19.7493 108.956 19.28C109.799 18.8 110.807 18.56 111.98 18.56C112.737 18.56 113.452 18.6773 114.124 18.912C114.807 19.1467 115.367 19.4827 115.804 19.92L115.132 21.552C114.652 21.1467 114.161 20.8533 113.66 20.672C113.159 20.48 112.62 20.384 112.044 20.384C110.903 20.384 110.033 20.7307 109.436 21.424C108.839 22.1067 108.54 23.0827 108.54 24.352C108.54 25.6213 108.839 26.6027 109.436 27.296C110.033 27.9893 110.903 28.336 112.044 28.336C112.62 28.336 113.159 28.2453 113.66 28.064C114.161 27.872 114.652 27.5733 115.132 27.168L115.804 28.8C115.367 29.2267 114.807 29.5627 114.124 29.808C113.452 30.0427 112.737 30.16 111.98 30.16ZM122.279 30.16C120.733 30.16 119.549 29.76 118.727 28.96C117.917 28.1493 117.511 26.9547 117.511 25.376V18.72H119.559V25.36C119.559 26.3733 119.789 27.136 120.247 27.648C120.717 28.1493 121.394 28.4 122.279 28.4C124.082 28.4 124.983 27.3867 124.983 25.36V18.72H127.015V25.376C127.015 26.9547 126.615 28.1493 125.815 28.96C125.015 29.76 123.837 30.16 122.279 30.16ZM129.404 30V18.72H134.3C135.537 18.72 136.492 19.0293 137.164 19.648C137.836 20.2667 138.172 21.1307 138.172 22.24C138.172 23.3493 137.836 24.2187 137.164 24.848C136.492 25.4667 135.537 25.776 134.3 25.776H131.452V30H129.404ZM131.452 24.16H133.98C135.452 24.16 136.188 23.52 136.188 22.24C136.188 20.9707 135.452 20.336 133.98 20.336H131.452V24.16ZM139.841 30V18.72H147.345V20.352H141.809V23.456H146.993V25.088H141.809V28.368H147.345V30H139.841ZM149.388 30V18.72H154.284C155.522 18.72 156.476 19.0187 157.148 19.616C157.82 20.2027 158.156 21.0293 158.156 22.096C158.156 22.9387 157.938 23.6373 157.5 24.192C157.063 24.736 156.434 25.104 155.612 25.296C156.156 25.4667 156.604 25.8773 156.956 26.528L158.844 30H156.588L154.636 26.4C154.444 26.048 154.215 25.808 153.948 25.68C153.692 25.552 153.362 25.488 152.956 25.488H151.436V30H149.388ZM151.436 23.968H153.932C155.426 23.968 156.172 23.36 156.172 22.144C156.172 20.9387 155.426 20.336 153.932 20.336H151.436V23.968ZM158.938 30L164.042 18.72H165.722L170.826 30H168.746L167.626 27.392H162.122L161.018 30H158.938ZM164.858 20.944L162.826 25.76H166.922L164.89 20.944H164.858ZM172.06 30V18.72H176.956C178.193 18.72 179.148 19.0187 179.82 19.616C180.492 20.2027 180.828 21.0293 180.828 22.096C180.828 22.9387 180.609 23.6373 180.172 24.192C179.735 24.736 179.105 25.104 178.284 25.296C178.828 25.4667 179.276 25.8773 179.628 26.528L181.516 30H179.26L177.308 26.4C177.116 26.048 176.887 25.808 176.62 25.68C176.364 25.552 176.033 25.488 175.628 25.488H174.108V30H172.06ZM174.108 23.968H176.604C178.097 23.968 178.844 23.36 178.844 22.144C178.844 20.9387 178.097 20.336 176.604 20.336H174.108V23.968ZM191.229 30.16C190.344 30.16 189.523 30.048 188.765 29.824C188.008 29.5893 187.368 29.2747 186.845 28.88L187.469 27.264C187.992 27.6373 188.563 27.9253 189.181 28.128C189.811 28.3307 190.493 28.432 191.229 28.432C192.072 28.432 192.685 28.2933 193.069 28.016C193.453 27.728 193.645 27.36 193.645 26.912C193.645 26.5387 193.507 26.2453 193.229 26.032C192.963 25.8187 192.499 25.6427 191.837 25.504L190.077 25.136C188.072 24.7093 187.069 23.68 187.069 22.048C187.069 21.344 187.256 20.7307 187.629 20.208C188.003 19.6853 188.52 19.28 189.181 18.992C189.843 18.704 190.605 18.56 191.469 18.56C192.237 18.56 192.957 18.6773 193.629 18.912C194.301 19.136 194.861 19.456 195.309 19.872L194.685 21.408C193.8 20.6613 192.723 20.288 191.453 20.288C190.717 20.288 190.141 20.4427 189.725 20.752C189.309 21.0613 189.101 21.4667 189.101 21.968C189.101 22.352 189.229 22.6613 189.485 22.896C189.741 23.12 190.179 23.296 190.797 23.424L192.541 23.792C193.597 24.016 194.381 24.368 194.893 24.848C195.416 25.328 195.677 25.968 195.677 26.768C195.677 27.44 195.496 28.032 195.133 28.544C194.771 29.056 194.253 29.456 193.581 29.744C192.92 30.0213 192.136 30.16 191.229 30.16ZM197.435 30V18.72H204.939V20.352H199.403V23.456H204.587V25.088H199.403V28.368H204.939V30H197.435ZM206.982 30V18.72H208.518L214.582 26.592V18.72H216.486V30H214.966L208.886 22.096V30H206.982ZM218.951 30V18.72H220.999V23.424H226.807V18.72H228.855V30H226.807V25.136H220.999V30H218.951ZM230.11 30L235.214 18.72H236.894L241.998 30H239.918L238.798 27.392H233.294L232.19 30H230.11ZM236.03 20.944L233.998 25.76H238.094L236.062 20.944H236.03Z" fill="white"/>
</svg>
